<svg width="241" height="310" viewBox="0 0 241 310" fill="none" xmlns="http://www.w3.org/2000/svg">
<path d="M85.3458 289.758C95.0769 286.216 105.833 291.15 109.563 300.77L121.489 296.43C115.367 280.24 97.2924 271.908 81.0065 277.836L75.0003 280.022L79.3397 291.944L85.3458 289.758Z" fill="white"/>
<path d="M125.364 14.7342C127.254 12.0344 126.598 8.31332 123.898 6.42292C121.198 4.53252 117.477 5.18864 115.587 7.88842C113.697 10.5882 114.353 14.3093 117.052 16.1997C119.752 18.0901 123.473 17.4339 125.364 14.7342Z" stroke="white" stroke-width="3" stroke-miterlimit="10"/>
<path d="M130.012 39.6235C131.903 36.9237 131.246 33.2027 128.547 31.3123C125.847 29.4219 122.126 30.078 120.235 32.7778C118.345 35.4775 119.001 39.1986 121.701 41.089C124.401 42.9794 128.122 42.3233 130.012 39.6235Z" stroke="white" stroke-width="3" stroke-miterlimit="10"/>
<rect x="118.758" y="193.424" width="99.2324" height="99.2324" transform="rotate(-15 118.758 193.424)" fill="white"/>
<line x1="105.464" y1="100.813" x2="133.101" y2="169.459" stroke="white"/>
<line x1="40.3083" y1="168.606" x2="114.311" y2="226.569" stroke="white"/>
<rect x="0.859375" y="117.86" width="18.636" height="18.636" fill="white"/>
</svg>
