<svg width="82" height="75" viewBox="0 0 82 75" fill="none" xmlns="http://www.w3.org/2000/svg">
<path d="M81.6192 70.8051L64.3835 42.792C63.9121 42.0261 63.0939 41.5689 62.1946 41.5689C61.2955 41.5689 60.4773 42.0263 60.0062 42.792L57.7685 46.429C57.4204 46.9948 57.5969 47.7359 58.1627 48.084C58.7288 48.4321 59.4696 48.2557 59.8179 47.6899L62.0556 44.0527C62.0675 44.0335 62.1035 43.9749 62.1949 43.9749C62.2864 43.9749 62.3226 44.0335 62.3344 44.0527L79.5701 72.0658C79.5839 72.0881 79.6204 72.1475 79.5737 72.2313C79.5269 72.315 79.4571 72.315 79.4308 72.315H69.8855L43.1886 28.9258C42.9488 28.536 42.6189 28.2267 42.2343 28.0165C42.2348 28.0166 42.2353 28.0169 42.2356 28.0171V19.8523C43.2368 20.1238 44.212 20.2398 45.166 20.2398C47.9098 20.2398 50.4792 19.286 52.9928 18.353C56.4759 17.06 59.7659 15.8388 63.3242 17.2658C63.7831 17.4498 64.3016 17.3944 64.7112 17.1173C65.1213 16.84 65.366 16.3789 65.366 15.884V2.29361C65.366 1.69462 65.0107 1.15634 64.4612 0.92251C59.9443 -1.00369 55.9846 0.465904 52.1554 1.88713C48.5682 3.21867 45.1801 4.47638 41.4909 2.82757C41.1185 2.66117 40.6876 2.6948 40.3455 2.91645C40.0034 3.13827 39.7969 3.51816 39.7969 3.92592V3.9706C39.7763 4.06013 39.7644 4.15286 39.7644 4.24863V28.0171C39.3805 28.2274 39.0509 28.5365 38.8113 28.9258L26.1367 49.5256L21.9938 42.7922C21.5226 42.0263 20.7044 41.569 19.8051 41.569C18.906 41.569 18.0878 42.0263 17.6166 42.7922L0.380718 70.8051C-0.106638 71.5971 -0.127458 72.5934 0.326104 73.4052C0.779667 74.2171 1.63923 74.7214 2.56925 74.7214H79.4306C80.3607 74.7214 81.2202 74.2171 81.6738 73.4052C82.1275 72.5934 82.1065 71.5969 81.6192 70.8051ZM42.2031 5.63399C46.0976 6.70223 49.5956 5.40384 52.9928 4.14277C56.3537 2.89515 59.5379 1.71352 62.96 2.91886V14.6079C59.0538 13.5367 55.5523 14.8366 52.1555 16.0973C48.8003 17.3427 45.6191 18.5235 42.2031 17.3219V5.63399ZM14.9397 72.3152L19.0671 65.6071C19.4153 65.0412 19.2388 64.3002 18.673 63.952C18.107 63.604 17.3661 63.7803 17.0179 64.3461L12.1147 72.3152H2.56941C2.54315 72.3152 2.47332 72.3152 2.42655 72.2314C2.37979 72.1477 2.41614 72.0884 2.43008 72.066L19.6659 44.0531C19.6778 44.0339 19.7138 43.9752 19.8053 43.9752C19.8967 43.9752 19.9328 44.0339 19.9446 44.0531L24.7243 51.8213L19.9518 59.5778C19.6036 60.1436 19.7801 60.8847 20.346 61.2329C20.9121 61.581 21.653 61.4046 22.001 60.8387L40.8607 30.1866C40.8725 30.1674 40.9086 30.1087 41 30.1087C41.0913 30.1087 41.1273 30.1674 41.1394 30.1866L67.0603 72.3152H14.9397Z" fill="black"/>
</svg>
