<svg width="22" height="22" viewBox="0 0 22 22" fill="none" xmlns="http://www.w3.org/2000/svg">
<path d="M21.5551 3.94679H5.05926L3.8957 0.61111C3.76835 0.244933 3.42319 0 3.03599 0H0.910798C0.407977 0 0 0.407977 0 0.910798C0 1.41386 0.407977 1.82184 0.910798 1.82184H2.38895L7.64059 16.8764C7.76819 17.2421 8.11334 17.487 8.50054 17.487H17.9119C18.4147 17.487 18.8227 17.0798 18.8227 16.5762C18.8227 16.0727 18.4147 15.6654 17.9119 15.6654H9.14734L8.62227 14.1604L18.5225 13.1178C18.8559 13.0826 19.2123 12.7966 19.3184 12.4781L21.9701 4.52319C22.0762 4.20468 21.8907 3.94679 21.5551 3.94679Z" fill="black"/>
<path d="M16.5983 22C17.6601 22 18.5209 21.1393 18.5209 20.0775C18.5209 19.0157 17.6601 18.1549 16.5983 18.1549C15.5365 18.1549 14.6758 19.0157 14.6758 20.0775C14.6758 21.1393 15.5365 22 16.5983 22Z" fill="black"/>
<path d="M10.5241 22C11.5859 22 12.4467 21.1393 12.4467 20.0775C12.4467 19.0157 11.5859 18.1549 10.5241 18.1549C9.46232 18.1549 8.60156 19.0157 8.60156 20.0775C8.60156 21.1393 9.46232 22 10.5241 22Z" fill="black"/>
</svg>
