<svg width="29" height="39" viewBox="0 0 29 39" fill="none" xmlns="http://www.w3.org/2000/svg">
<path d="M23.4592 0.302606H21.3432C21.1793 0.115155 20.9496 0 20.6911 0H18.3839C18.1254 0 17.8956 0.115155 17.7318 0.302606H0.910282C0.562889 0.302606 0.28125 0.584245 0.28125 0.931639V33.3736V37.9865C0.28125 38.3339 0.562889 38.6155 0.910282 38.6155H17.668C17.8328 38.8508 18.0897 39 18.3839 39H20.6911C20.9853 39 21.242 38.8508 21.4069 38.6155H22.6205C25.5231 38.6155 27.8844 36.2542 27.8844 33.3517V31.584C28.4143 30.7629 28.7232 29.7865 28.7232 28.7388V5.56643C28.7231 2.66391 26.3617 0.302606 23.4592 0.302606ZM27.465 5.56643V22.9684H21.5989V1.56067H23.4592C25.668 1.56067 27.465 3.35761 27.465 5.56643ZM27.465 28.7388C27.465 30.9475 25.668 32.7446 23.4592 32.7446H21.5989V24.2265H27.465V28.7388ZM20.3408 23.5966C20.3408 23.5968 20.3408 23.5971 20.3408 23.5974C20.3408 23.5978 20.3408 23.5979 20.3408 23.5983V32.7447H18.7341V23.599C18.7341 23.5984 18.7342 23.5979 18.7342 23.5974C18.7342 23.5969 18.7341 23.5963 18.7341 23.5958V1.25806H20.3408V23.5966ZM17.4761 37.3575H3.31721C3.53461 37.0465 3.69329 36.6917 3.77716 36.3091H6.27802C6.62542 36.3091 6.90706 36.0274 6.90706 35.68C6.90706 35.3327 6.62542 35.051 6.27802 35.051H3.77716C3.69329 34.6684 3.53461 34.3136 3.31721 34.0026H17.476V37.3575H17.4761ZM1.53931 34.1262C2.15325 34.3756 2.5877 34.9777 2.5877 35.68C2.5877 36.3824 2.15325 36.9845 1.53931 37.2339V34.1262ZM1.53931 32.7446V24.2265H17.476V32.7447H1.53931V32.7446ZM17.4761 1.56067V22.9684H1.53931V1.56067H17.4761ZM18.7341 34.0026H20.3408V37.7419H18.7341V34.0026ZM22.6205 37.3575H21.5989V34.0026H23.4592C24.3141 34.0026 25.1212 33.7965 25.8357 33.4333C25.2501 34.2211 24.3809 34.7902 23.3693 34.9813C23.0279 35.0458 22.8034 35.3748 22.8679 35.7162C22.9249 36.0181 23.1888 36.2286 23.4852 36.2286C23.5239 36.2286 23.5632 36.225 23.6027 36.2175C24.6878 36.0125 25.6487 35.4769 26.3838 34.7243C25.8224 36.259 24.3474 37.3575 22.6205 37.3575Z" fill="white" stroke="white" stroke-width="0.4"/>
<path d="M8.79309 36.3091H15.5878C15.9352 36.3091 16.2168 36.0275 16.2168 35.6801C16.2168 35.3327 15.9352 35.051 15.5878 35.051H8.79309C8.4457 35.051 8.16406 35.3327 8.16406 35.6801C8.16406 36.0275 8.4457 36.3091 8.79309 36.3091Z" fill="white" stroke="white" stroke-width="0.4"/>
</svg>
