<svg width="36" height="34" viewBox="0 0 36 34" fill="none" xmlns="http://www.w3.org/2000/svg">
<path d="M33.75 9.10294H26.631C27.1418 8.75419 27.5805 8.40769 27.8865 8.09719C29.7 6.27244 29.7 3.30244 27.8865 1.47769C26.1248 -0.295311 23.0513 -0.297561 21.2873 1.47769C20.313 2.45644 17.7233 6.44119 18.081 9.10294H17.919C18.2745 6.44119 15.687 2.45644 14.7128 1.47769C12.9488 -0.297561 9.87525 -0.295311 8.1135 1.47769C6.3 3.30244 6.3 6.27244 8.11125 8.09719C8.4195 8.40769 8.85825 8.75419 9.369 9.10294H2.25C1.01025 9.10294 0 10.1132 0 11.3529V16.9779C0 17.5989 0.504 18.1029 1.125 18.1029H2.25V31.6029C2.25 32.8427 3.26025 33.8529 4.5 33.8529H31.5C32.7397 33.8529 33.75 32.8427 33.75 31.6029V18.1029H34.875C35.496 18.1029 36 17.5989 36 16.9779V11.3529C36 10.1132 34.9897 9.10294 33.75 9.10294ZM9.70875 3.06394C10.1655 2.60494 10.7708 2.35294 11.4142 2.35294C12.0555 2.35294 12.6607 2.60494 13.1175 3.06394C14.634 4.58944 16.1415 8.48644 15.6173 9.02869C15.6173 9.02869 15.5227 9.10294 15.201 9.10294C13.6462 9.10294 10.6785 7.48744 9.70875 6.51094C8.766 5.56144 8.766 4.01344 9.70875 3.06394ZM16.875 31.6029H4.5V18.1029H16.875V31.6029ZM16.875 15.8529H2.25V11.3529H15.201H16.875V15.8529ZM22.8825 3.06394C23.796 2.14819 25.38 2.15044 26.2913 3.06394C27.234 4.01344 27.234 5.56144 26.2913 6.51094C25.3215 7.48744 22.3538 9.10294 20.799 9.10294C20.4773 9.10294 20.3827 9.03094 20.3805 9.02869C19.8585 8.48644 21.366 4.58944 22.8825 3.06394ZM31.5 31.6029H19.125V18.1029H31.5V31.6029ZM33.75 15.8529H19.125V11.3529H20.799H33.75V15.8529Z" fill="white"/>
</svg>
