<svg width="41" height="41" viewBox="0 0 41 41" fill="none" xmlns="http://www.w3.org/2000/svg">
<g clip-path="url(#clip0)">
<path d="M14.4736 8.6459C14.8355 9.10891 14.8768 9.863 14.5677 10.3628L13.8311 11.5538H16.6538C17.4495 10.1987 17.3362 8.40718 16.3665 7.16661L16.2735 7.04754C15.9115 6.58452 15.8703 5.83035 16.1794 5.33058L16.9119 4.14655H14.0893C13.2979 5.50091 13.4126 7.28841 14.3806 8.5269L14.4736 8.6459Z" fill="white"/>
<path d="M19.5986 8.6459C19.9605 9.10891 20.0018 9.863 19.6927 10.3628L18.9561 11.5538H21.7788C22.5745 10.1987 22.4612 8.40718 21.4915 7.16661L21.3985 7.04754C21.0365 6.58452 20.9953 5.83035 21.3044 5.33058L22.0369 4.14655H19.2143C18.4229 5.50091 18.5376 7.28841 19.5056 8.5269L19.5986 8.6459Z" fill="white"/>
<path d="M24.7236 8.6459C25.0855 9.10891 25.1268 9.863 24.8177 10.3628L24.0811 11.5538H26.9038C27.6995 10.1987 27.5862 8.40718 26.6165 7.16661L26.5235 7.04754C26.1615 6.58452 26.1203 5.83035 26.4294 5.33058L27.1618 4.14655H24.3393C23.5479 5.50091 23.6626 7.28841 24.6306 8.5269L24.7236 8.6459Z" fill="white"/>
<path d="M14.2549 27.1149L12.7314 25.2574C12.1592 25.7268 11.4744 26.3889 11.0273 26.905L12.8433 28.4779C13.2043 28.0609 13.7848 27.5004 14.2549 27.1149Z" fill="white"/>
<path d="M38.1829 34.451C37.8983 30.169 36.0955 26.1825 33.0326 23.1196C30.6391 20.726 27.6813 19.1024 24.4595 18.371C24.4812 18.2005 24.4937 18.0272 24.4937 17.851C24.4937 15.5988 22.6615 13.7665 20.4094 13.7665C18.1572 13.7665 16.3249 15.5988 16.3249 17.851C16.3249 18.0413 16.3391 18.2283 16.3644 18.4118C13.211 19.162 10.3173 20.7697 7.96745 23.1196C4.90462 26.1824 3.10191 30.169 2.81715 34.451H0V36.8534H41V34.451H38.1829ZM20.4093 16.1689C21.3368 16.1689 22.0913 16.9234 22.0913 17.851C22.0913 18.7785 21.3367 19.533 20.4093 19.533C19.4818 19.533 18.7271 18.7784 18.7271 17.851C18.7271 16.9235 19.4818 16.1689 20.4093 16.1689ZM17.431 20.6418C18.1767 21.4371 19.2356 21.9354 20.4093 21.9354C21.598 21.9354 22.6694 21.4246 23.4164 20.6114C30.0915 21.9032 35.2354 27.5402 35.774 34.451H10.3965C10.5107 32.6565 11.0939 30.937 12.1029 29.4435L10.1123 28.0987C8.83398 29.9908 8.10791 32.1749 7.99084 34.451H5.22598C5.7605 27.5929 10.8302 21.9893 17.431 20.6418Z" fill="white"/>
</g>
<defs>
<clipPath id="clip0">
<rect width="41" height="41" fill="white"/>
</clipPath>
</defs>
</svg>
