<svg width="36" height="34" viewBox="0 0 36 34" fill="none" xmlns="http://www.w3.org/2000/svg">
<path d="M31.2245 9.24107H25.7143V5.20025C25.7143 2.56704 23.572 0.424744 20.9388 0.424744H4.77551C2.14229 0.424744 0 2.56704 0 5.20025V12.5472C0 15.0568 1.94591 17.1205 4.40816 17.3087V24.7588L10.2857 18.8813V21.3636C10.2857 23.9968 12.428 26.1391 15.0612 26.1391H24.1558L31.5918 33.5752V26.1251C34.0541 25.9368 36 23.8732 36 21.3635V14.0166C36 11.3834 33.8577 9.24107 31.2245 9.24107ZM10.2857 14.0166V15.7642L6.61224 19.4377V15.1186H4.77551C3.35762 15.1186 2.20408 13.9651 2.20408 12.5472V5.20025C2.20408 3.78237 3.35762 2.62883 4.77551 2.62883H20.9388C22.3567 2.62883 23.5102 3.78237 23.5102 5.20025V9.24107H15.0612C12.428 9.24107 10.2857 11.3834 10.2857 14.0166ZM33.7959 21.3635C33.7959 22.7814 32.6424 23.935 31.2245 23.935H29.3878V28.254L25.0687 23.935H15.0612C13.6433 23.935 12.4898 22.7814 12.4898 21.3635V14.0166C12.4898 12.5987 13.6433 11.4452 15.0612 11.4452H31.2245C32.6424 11.4452 33.7959 12.5987 33.7959 14.0166V21.3635Z" fill="white"/>
<path d="M30.3462 14.6522H15.6523V16.8562H30.3462V14.6522Z" fill="white"/>
<path d="M30.4908 18.7921H15.7969V20.9962H30.4908V18.7921Z" fill="white"/>
</svg>
