<svg width="30" height="25" viewBox="0 0 30 25" fill="none" xmlns="http://www.w3.org/2000/svg">
<path d="M12.1053 25.0001C8.47368 25.0001 5.51462 22.0324 5.51462 18.3904V12.9947H0V10.3418H8.15984V18.3904C8.15984 20.5936 9.95322 22.3472 12.1053 22.3472C14.2573 22.3472 16.0507 20.5486 16.0507 18.3904V17.0414H18.6959V18.3904C18.7407 22.0324 15.7368 25.0001 12.1053 25.0001Z" fill="white"/>
<path d="M18.5163 10.2968H15.8711V6.60971C15.8711 2.96763 18.8302 0 22.5066 0C26.1382 0 29.0972 2.96763 29.0972 6.60971V7.95863H26.452V6.60971C26.452 4.40647 24.6586 2.65288 22.5066 2.65288C20.3097 2.65288 18.5612 4.45144 18.5612 6.60971V10.2968H18.5163Z" fill="white"/>
<path d="M27.9301 16.187C28.9205 16.187 29.7235 15.3817 29.7235 14.3884C29.7235 13.3951 28.9205 12.5898 27.9301 12.5898C26.9396 12.5898 26.1367 13.3951 26.1367 14.3884C26.1367 15.3817 26.9396 16.187 27.9301 16.187Z" fill="white"/>
<path d="M8.16085 2.96777H5.51562V5.62065H8.16085V2.96777Z" fill="white"/>
</svg>
