<svg width="138" height="33" viewBox="0 0 138 33" fill="none" xmlns="http://www.w3.org/2000/svg">
<path d="M61.8458 14.2411C62.261 14.2411 62.6763 14.3105 63.0223 14.4493C63.3683 14.5881 63.7143 14.727 63.9912 15.0046C64.268 15.2128 64.4756 15.4904 64.614 15.8374C64.7524 16.1845 64.8216 16.5315 64.8216 16.9479C64.8216 17.4338 64.6832 17.8502 64.4756 18.2666C64.268 18.6137 63.9912 18.9607 63.5759 19.1689L65.5829 22.0145H63.3683L61.6382 19.5853H60.8077V22.0145H58.8008V14.2411H61.8458ZM60.8077 15.9763V17.7808H61.8458C62.1226 17.7808 62.3302 17.7114 62.5379 17.5032C62.6763 17.3644 62.8147 17.0867 62.8147 16.8091C62.8147 16.5315 62.7455 16.3233 62.5379 16.1845C62.3994 16.0457 62.1226 15.9068 61.8458 15.9068H60.8077V15.9763Z" fill="black"/>
<path d="M72.9186 16.0457H69.5968V17.0867H71.9498V18.7525H69.5968V20.0712H73.0571V21.8757H67.5898V14.2411H72.9186V16.0457Z" fill="black"/>
<path d="M82.3977 21.9451H80.2524L79.9755 21.3204H77.2073L76.9305 21.9451H74.7852L78.3146 14.1023H78.9375L82.3977 21.9451ZM77.8994 19.6547H79.2143L78.5222 17.8502L77.8994 19.6547Z" fill="black"/>
<path d="M86.3468 20.1406H89.5302V21.9451H84.3398V14.2411H86.3468V20.1406Z" fill="black"/>
<path d="M98.1069 14.1023C98.7298 14.1023 99.2142 14.2411 99.6987 14.5187C100.114 14.7963 100.46 15.1434 100.668 15.5598L99.6295 16.3927C99.4218 16.115 99.2142 15.9068 99.0066 15.768C98.799 15.6292 98.5222 15.5598 98.1761 15.5598C97.8993 15.5598 97.6917 15.6292 97.4841 15.768C97.2765 15.9068 97.2073 16.0456 97.2073 16.3233C97.2073 16.5315 97.2765 16.7397 97.4149 16.8091C97.5533 16.9479 97.7609 17.0173 98.1069 17.1561L99.0066 17.5726C99.6294 17.8502 100.114 18.1278 100.391 18.4748C100.737 18.8219 100.875 19.2383 100.875 19.7935C100.875 20.1406 100.806 20.4876 100.668 20.7652C100.529 21.0428 100.322 21.3204 100.114 21.5287C99.9063 21.7369 99.5603 21.8757 99.2834 22.0145C98.9374 22.1533 98.5914 22.1533 98.2454 22.1533C97.5533 22.1533 96.9997 22.0145 96.446 21.6675C95.9616 21.3898 95.5464 20.9734 95.2695 20.4182L96.3768 19.5853C96.446 19.7241 96.5844 19.8629 96.7228 20.0017C96.8613 20.1406 96.9997 20.2794 97.1381 20.3488C97.2765 20.4876 97.4841 20.557 97.6225 20.6264C97.8301 20.6958 98.0377 20.6958 98.2454 20.6958C98.5914 20.6958 98.8682 20.6264 99.0758 20.4876C99.2834 20.3488 99.3526 20.1406 99.3526 19.8629C99.3526 19.5853 99.2834 19.4465 99.0758 19.3077C98.9374 19.1689 98.6606 19.0301 98.3838 18.8913L97.5533 18.5442C97.2765 18.4054 96.9997 18.2666 96.792 18.1278C96.5844 17.989 96.3768 17.8502 96.1692 17.642C96.0308 17.4337 95.8924 17.2949 95.754 17.0173C95.6848 16.8091 95.6156 16.5315 95.6156 16.2539C95.6156 15.9068 95.6848 15.6292 95.8232 15.3516C95.9616 15.074 96.1 14.8658 96.3768 14.6575C96.5844 14.4493 96.8613 14.3105 97.2073 14.2411C97.4149 14.1023 97.7609 14.1023 98.1069 14.1023Z" fill="black"/>
<path d="M106.068 15.9763C106.622 15.9763 107.176 16.1151 107.591 16.3927C108.006 16.6703 108.352 17.0173 108.629 17.4338L107.522 18.2666C107.383 17.989 107.176 17.7808 106.968 17.642C106.761 17.5032 106.484 17.4338 106.138 17.4338C105.93 17.4338 105.722 17.5032 105.515 17.5726C105.307 17.642 105.169 17.7808 105.03 17.9196C104.892 18.0584 104.823 18.1972 104.754 18.4054C104.684 18.6137 104.615 18.8219 104.615 19.0301C104.615 19.2383 104.684 19.4465 104.754 19.6547C104.823 19.863 104.961 20.0018 105.03 20.1406C105.169 20.2794 105.307 20.4182 105.515 20.4876C105.722 20.557 105.93 20.6264 106.138 20.6264C106.484 20.6264 106.761 20.557 106.968 20.4182C107.176 20.2794 107.383 20.0712 107.522 19.7935L108.629 20.6264C108.421 21.0428 108.075 21.3899 107.66 21.6675C107.245 21.9451 106.761 22.0839 106.138 22.0839C105.722 22.0839 105.307 22.0145 104.892 21.8757C104.546 21.7369 104.2 21.5287 103.923 21.2511C103.646 20.9734 103.439 20.6264 103.231 20.2794C103.093 19.9324 103.023 19.5159 103.023 19.0995C103.023 18.6831 103.093 18.2666 103.231 17.9196C103.369 17.5726 103.577 17.2256 103.923 16.9479C104.2 16.6703 104.546 16.4621 104.892 16.3233C105.238 16.1151 105.653 15.9763 106.068 15.9763Z" fill="black"/>
<path d="M112.434 16.6008C112.641 16.3926 112.849 16.2538 113.126 16.115C113.403 15.9762 113.679 15.9762 114.025 15.9762C114.372 15.9762 114.648 16.0456 114.925 16.115C115.202 16.2538 115.41 16.3926 115.617 16.6008C115.825 16.8091 115.963 17.0173 116.032 17.3643C116.102 17.6419 116.171 17.989 116.171 18.336V21.9451H114.648V18.5442C114.648 18.1972 114.579 17.9195 114.372 17.7113C114.164 17.5031 113.887 17.4337 113.61 17.4337C113.264 17.4337 112.987 17.5031 112.849 17.7113C112.641 17.9195 112.572 18.1972 112.572 18.5442V21.9451H110.98V13.1306H112.572V16.6008H112.434Z" fill="black"/>
<path d="M121.639 15.9763C122.054 15.9763 122.469 16.0457 122.815 16.1845C123.161 16.3233 123.507 16.5315 123.784 16.8091C124.061 17.0867 124.269 17.3644 124.476 17.7808C124.615 18.1278 124.753 18.5443 124.753 18.9607C124.753 19.3771 124.684 19.7935 124.476 20.1406C124.338 20.4876 124.061 20.8346 123.784 21.1123C123.507 21.3899 123.161 21.5981 122.815 21.7369C122.469 21.8757 122.054 21.9451 121.639 21.9451C121.224 21.9451 120.808 21.8757 120.462 21.7369C120.116 21.5981 119.77 21.3899 119.493 21.1123C119.217 20.8346 119.009 20.557 118.801 20.1406C118.663 19.7935 118.594 19.3771 118.594 18.9607C118.594 18.5443 118.663 18.1278 118.801 17.7808C118.94 17.4338 119.147 17.0867 119.493 16.8091C119.77 16.5315 120.116 16.3233 120.462 16.1845C120.808 16.1151 121.224 15.9763 121.639 15.9763ZM121.639 17.4338C121.224 17.4338 120.808 17.5726 120.531 17.8502C120.255 18.1278 120.116 18.5443 120.116 18.9607C120.116 19.3771 120.255 19.7935 120.531 20.0712C120.808 20.3488 121.154 20.4876 121.639 20.4876C121.846 20.4876 122.054 20.4182 122.262 20.3488C122.469 20.2794 122.608 20.1406 122.746 20.0018C122.884 19.863 122.954 19.7241 123.092 19.5159C123.161 19.3077 123.23 19.0995 123.23 18.8913C123.23 18.6831 123.161 18.4748 123.092 18.2666C123.023 18.0584 122.884 17.9196 122.746 17.7808C122.608 17.642 122.469 17.5032 122.262 17.4338C122.054 17.5032 121.846 17.4338 121.639 17.4338Z" fill="black"/>
<path d="M129.873 15.9763C130.288 15.9763 130.704 16.0457 131.05 16.1845C131.396 16.3233 131.742 16.5315 132.019 16.8091C132.295 17.0867 132.503 17.3644 132.711 17.7808C132.849 18.1278 132.987 18.5443 132.987 18.9607C132.987 19.3771 132.918 19.7935 132.711 20.1406C132.572 20.4876 132.295 20.8346 132.019 21.1123C131.742 21.3899 131.396 21.5981 131.05 21.7369C130.704 21.8757 130.288 21.9451 129.873 21.9451C129.458 21.9451 129.043 21.8757 128.697 21.7369C128.351 21.5981 128.005 21.3899 127.728 21.1123C127.451 20.8346 127.243 20.557 127.036 20.1406C126.897 19.7935 126.828 19.3771 126.828 18.9607C126.828 18.5443 126.897 18.1278 127.036 17.7808C127.174 17.4338 127.382 17.0867 127.728 16.8091C128.005 16.5315 128.351 16.3233 128.697 16.1845C129.043 16.1151 129.458 15.9763 129.873 15.9763ZM129.873 17.4338C129.458 17.4338 129.043 17.5726 128.766 17.8502C128.489 18.1278 128.351 18.5443 128.351 18.9607C128.351 19.3771 128.489 19.7935 128.766 20.0712C129.043 20.3488 129.389 20.4876 129.873 20.4876C130.081 20.4876 130.288 20.4182 130.496 20.3488C130.704 20.2794 130.842 20.1406 130.98 20.0018C131.119 19.863 131.188 19.7241 131.326 19.5159C131.396 19.3077 131.465 19.0995 131.465 18.8913C131.465 18.6831 131.396 18.4748 131.326 18.2666C131.257 18.0584 131.119 17.9196 130.98 17.7808C130.842 17.642 130.704 17.5032 130.496 17.4338C130.288 17.5032 130.081 17.4338 129.873 17.4338Z" fill="black"/>
<path d="M136.933 21.9451H135.41V13.1306H137.002V21.9451H136.933Z" fill="black"/>
<path d="M15.6087 32.2353C10.9261 32.2353 7.11062 28.4088 7.11062 23.7127V16.7554H0V13.3348H10.5214V23.7127C10.5214 26.5536 12.8338 28.8147 15.6087 28.8147C18.3835 28.8147 20.6959 26.4956 20.6959 23.7127V21.9734H24.1067V23.7127C24.1645 28.4088 20.2913 32.2353 15.6087 32.2353Z" fill="black"/>
<path d="M23.8756 13.2768H20.4648V8.52264C20.4648 3.82649 24.2803 0 29.0207 0C33.7033 0 37.5188 3.82649 37.5188 8.52264V10.262H34.108V8.52264C34.108 5.68176 31.7956 3.42065 29.0207 3.42065C26.188 3.42065 23.9334 5.73974 23.9334 8.52264V13.2768H23.8756Z" fill="black"/>
<path d="M36.0155 20.8718C37.2926 20.8718 38.3279 19.8335 38.3279 18.5527C38.3279 17.2719 37.2926 16.2336 36.0155 16.2336C34.7384 16.2336 33.7031 17.2719 33.7031 18.5527C33.7031 19.8335 34.7384 20.8718 36.0155 20.8718Z" fill="black"/>
<path d="M10.5202 3.82648H7.10938V7.24713H10.5202V3.82648Z" fill="black"/>
</svg>
