<?xml version="1.0" standalone="no"?>
<!DOCTYPE svg PUBLIC "-//W3C//DTD SVG 20010904//EN"
 "http://www.w3.org/TR/2001/REC-SVG-20010904/DTD/svg10.dtd">
<svg version="1.0" xmlns="http://www.w3.org/2000/svg"
 width="768.000000pt" height="768.000000pt" viewBox="0 0 768.000000 768.000000"
 preserveAspectRatio="xMidYMid meet">
<metadata>
Created by potrace 1.11, written by Peter Selinger 2001-2013
</metadata>
<g transform="translate(0.000000,768.000000) scale(0.100000,-0.100000)"
fill="#000000" stroke="none">
<path d="M5390 7029 c-132 -20 -374 -81 -390 -99 -3 -3 -12 -6 -20 -8 -8 -2
-60 -25 -115 -52 -164 -79 -309 -184 -442 -318 -46 -46 -83 -87 -83 -93 0 -6
-4 -7 -10 -4 -5 3 -10 1 -10 -5 0 -6 -9 -20 -19 -31 -58 -62 -196 -298 -238
-404 -38 -100 -79 -241 -89 -310 -2 -16 -6 -37 -9 -45 -14 -48 -19 -219 -19
-670 l-1 -505 40 0 c22 0 45 -4 52 -8 6 -4 14 -4 16 0 3 5 40 7 84 5 99 -3 88
-3 156 0 32 2 61 0 64 -4 2 -5 10 -5 16 -1 15 9 186 10 215 1 17 -6 22 -4 23
10 0 9 2 247 3 527 2 281 4 510 5 510 2 0 5 14 7 30 7 51 37 159 47 173 5 6 7
12 3 12 -9 0 71 157 107 210 42 61 43 62 120 141 139 141 327 241 521 276 67
12 276 11 342 -2 70 -14 185 -48 207 -62 7 -4 14 -8 17 -9 34 -6 168 -89 229
-140 106 -90 192 -200 249 -319 50 -103 58 -126 78 -210 23 -102 26 -139 28
-360 l1 -200 328 -1 329 -1 -3 261 c-1 144 -6 275 -10 291 -4 17 -10 46 -13
65 -3 19 -10 55 -16 80 -6 25 -12 55 -15 67 -22 96 -175 443 -195 443 -4 0
-13 13 -19 28 -7 15 -23 40 -36 55 -14 14 -25 29 -25 33 0 4 -7 14 -15 23 -8
9 -34 38 -58 66 -65 76 -224 225 -250 234 -7 2 -14 7 -17 11 -9 12 -140 100
-140 94 0 -3 -13 4 -29 15 -25 18 -116 62 -206 100 -73 31 -192 64 -315 88
-86 17 -396 24 -480 12z"/>
<path d="M1387 6302 c-16 -3 -17 -32 -17 -331 l0 -327 328 0 329 0 0 328 c0
180 -3 328 -6 329 -19 3 -620 3 -634 1z"/>
<path d="M0 4140 l0 -330 685 0 685 0 1 -717 c1 -746 1 -763 20 -878 6 -38 13
-79 14 -90 8 -48 60 -208 96 -294 35 -84 153 -295 183 -327 6 -7 22 -27 36
-45 50 -66 161 -184 217 -229 10 -8 41 -34 70 -57 28 -24 56 -43 62 -43 6 0
11 -4 11 -8 0 -5 12 -15 28 -23 15 -8 29 -17 32 -21 3 -4 57 -34 120 -66 192
-98 375 -153 590 -177 50 -6 271 -6 310 0 14 2 47 6 73 9 27 4 67 10 90 16 23
5 55 11 70 14 28 5 87 22 117 33 8 3 21 7 29 9 7 1 35 12 62 23 65 28 103 43
108 41 2 -1 7 2 10 7 3 4 24 17 46 28 235 116 474 334 628 573 79 123 173 338
204 466 22 96 36 178 37 223 1 18 3 33 6 33 7 0 8 490 1 491 -21 5 -638 5
-646 0 -6 -4 -10 -94 -11 -236 0 -205 -3 -240 -23 -320 -25 -99 -90 -246 -142
-322 -161 -234 -423 -394 -699 -428 -53 -7 -193 -7 -235 -1 -328 50 -607 247
-748 530 -54 107 -58 118 -88 251 -19 87 -20 125 -20 1143 l-1 1052 -1014 0
-1014 0 0 -330z"/>
<path d="M6820 3895 c-109 -35 -223 -125 -265 -210 -11 -22 -24 -43 -28 -46
-5 -3 -8 -8 -6 -10 1 -2 -3 -27 -10 -56 -24 -97 -18 -192 16 -270 9 -21 17
-40 18 -43 5 -30 87 -123 141 -161 116 -80 257 -101 393 -58 20 6 40 15 45 20
6 5 16 9 24 9 16 0 84 52 128 100 38 41 82 126 99 190 11 47 12 153 1 205 -8
37 -48 129 -58 133 -5 2 -8 9 -8 16 0 26 -120 127 -185 157 -36 16 -70 27 -75
24 -6 -4 -10 -2 -10 2 0 15 -172 13 -220 -2z"/>
</g>
</svg>
