<svg width="16" height="18" viewBox="0 0 16 18" fill="none" xmlns="http://www.w3.org/2000/svg">
<path d="M15.9814 4.88386L15.9808 4.86985C15.9726 4.69696 15.9672 4.51403 15.9639 4.31051C15.9485 3.31804 15.125 2.49708 14.0888 2.4416C11.9286 2.32611 10.2574 1.65128 8.82949 0.317951L8.8173 0.306827C8.35156 -0.102276 7.649 -0.102276 7.18311 0.306827L7.17093 0.317951C5.74302 1.65128 4.07185 2.32611 1.91156 2.44174C0.875574 2.49708 0.051886 3.31804 0.0365475 4.31065C0.0333938 4.5128 0.0278032 4.69572 0.0196322 4.86985L0.0187722 4.9024C-0.0232294 7.01273 -0.0754087 9.63915 0.841744 12.023C1.34605 13.334 2.10982 14.4735 3.11169 15.4103C4.25275 16.477 5.74732 17.3239 7.55381 17.9274C7.61259 17.947 7.67366 17.9629 7.73587 17.9749C7.8236 17.9916 7.9119 18 8.00021 18C8.08851 18 8.17696 17.9916 8.26454 17.9749C8.32676 17.9629 8.38826 17.9469 8.44732 17.9271C10.2517 17.3226 11.7446 16.4752 12.8847 15.4086C13.8862 14.4716 14.6499 13.3318 15.1547 12.0206C16.0752 9.62953 16.0232 6.99818 15.9814 4.88386Z" fill="#80F065"/>
<path d="M7.22727 10.7463L5.55682 8.86567L5 9.49254L7.22727 12L12 6.62687L11.4432 6L7.22727 10.7463Z" fill="black"/>
</svg>
