<svg width="114" height="111" viewBox="0 0 114 111" fill="none" xmlns="http://www.w3.org/2000/svg">
<path d="M93.9543 46.1116C99.5471 48.1472 105.731 45.2635 107.767 39.6707C109.802 34.0779 106.919 27.8938 101.326 25.8582C95.7331 23.8226 89.549 26.7063 87.5134 32.2991C85.4778 37.8919 88.3615 44.076 93.9543 46.1116Z" stroke="#37D2FA" stroke-width="3" stroke-miterlimit="10"/>
<path d="M83.0051 76.1848C88.5979 78.2204 94.782 75.3367 96.8176 69.7439C98.8532 64.1511 95.9695 57.967 90.3767 55.9314C84.7839 53.8958 78.5998 56.7795 76.5642 62.3723C74.5286 67.9651 77.4122 74.1492 83.0051 76.1848Z" stroke="#37D2FA" stroke-width="3" stroke-miterlimit="10"/>
<path d="M22.2473 54.0699C27.8401 56.1055 34.0241 53.2219 36.0598 47.629C38.0954 42.0362 35.2117 35.8521 29.6189 33.8165C24.0261 31.7809 17.842 34.6646 15.8064 40.2574C13.7708 45.8502 16.6544 52.0343 22.2473 54.0699Z" stroke="#37D2FA" stroke-width="3" stroke-miterlimit="10"/>
<path d="M41.7629 95.926C47.3557 97.9616 53.5398 95.0779 55.5754 89.4851C57.611 83.8923 54.7273 77.7082 49.1345 75.6726C43.5417 73.637 37.3576 76.5207 35.322 82.1135C33.2864 87.7063 36.1701 93.8904 41.7629 95.926Z" stroke="#37D2FA" stroke-width="3" stroke-miterlimit="10"/>
</svg>
