<svg width="42" height="28" viewBox="0 0 42 28" fill="none" xmlns="http://www.w3.org/2000/svg">
<path d="M11.9526 10.7179L22.1963 19.7242C22.21 19.7362 22.2236 19.7481 22.2356 19.7609C22.5672 20.0908 22.75 20.5308 22.75 20.9999C22.75 21.9646 21.9655 22.7499 21 22.7499C20.5352 22.7499 20.096 22.5688 19.7234 22.1962L10.717 11.9526C10.4128 11.6065 10.4299 11.0827 10.7563 10.7563C11.0828 10.4308 11.604 10.4137 11.9526 10.7179Z" fill="white"/>
<path d="M21 -6.10352e-05C32.5801 -6.10352e-05 42 9.42074 42 20.9999C42 23.172 41.6633 25.322 41.0019 27.3916C40.8857 27.7539 40.549 28 40.1679 28H1.832C1.45089 28 1.11423 27.7539 0.99799 27.3916C0.336655 25.322 0 23.1721 0 20.9999C0 9.42074 9.4199 -6.10352e-05 21 -6.10352e-05ZM4.37497 21.875H1.81068C1.87827 23.3548 2.07621 24.8237 2.48145 26.2499H39.5186C39.9238 24.8237 40.1217 23.3548 40.1893 21.875H37.625C37.1414 21.875 36.75 21.4836 36.75 20.9999C36.75 20.5163 37.1414 20.1249 37.625 20.1249H40.2057C40.076 17.2605 39.3296 14.5579 38.0772 12.1508L35.8358 13.4454C35.6973 13.5248 35.5469 13.5624 35.3983 13.5624C35.0975 13.5624 34.8018 13.4061 34.6412 13.1249C34.3986 12.7063 34.5421 12.1713 34.9608 11.9295L37.1972 10.6378C35.6942 8.29674 33.7025 6.30527 31.3614 4.8023L30.0697 7.04011C29.9091 7.32041 29.6134 7.47758 29.3126 7.47758C29.1639 7.47758 29.0136 7.44001 28.8752 7.36052C28.4565 7.11869 28.3129 6.58377 28.5556 6.16508L29.8498 3.923C27.4426 2.67038 24.7398 1.9239 21.8751 1.79421V4.37491C21.8751 4.85857 21.4837 5.24994 21.0001 5.24994C20.5164 5.24994 20.1251 4.85857 20.1251 4.37491V1.79421C17.2604 1.9239 14.5576 2.67038 12.1504 3.923L13.4446 6.16508C13.6872 6.58377 13.5437 7.11869 13.125 7.36052C12.9865 7.44001 12.8362 7.47758 12.6875 7.47758C12.3867 7.47758 12.0911 7.32033 11.9305 7.04011L10.6388 4.8023C8.29762 6.30527 6.30599 8.29674 4.80293 10.6378L7.03934 11.9295C7.45803 12.1713 7.60159 12.7063 7.35894 13.1249C7.19833 13.4061 6.9026 13.5624 6.60188 13.5624C6.45324 13.5624 6.30279 13.5248 6.1644 13.4454L3.92298 12.1508C2.67053 14.5579 1.92413 17.2605 1.79443 20.1249H4.37514C4.85879 20.1249 5.25016 20.5163 5.25016 20.9999C5.25 21.4836 4.85863 21.875 4.37497 21.875Z" fill="white"/>
</svg>
