<svg width="53" height="31" viewBox="0 0 53 31" fill="none" xmlns="http://www.w3.org/2000/svg">
<mask id="path-1-inside-1" fill="white">
<path d="M2.62671 8.79528H3.67967V4.88187C3.67967 2.5684 5.56179 0.686279 7.87526 0.686279H23.0808C24.4903 0.686279 25.7388 1.38573 26.5 2.45495C27.2612 1.38563 28.5097 0.686279 29.9192 0.686279H39.4719C39.9006 0.686279 40.2482 1.03388 40.2482 1.46265C40.2482 1.89141 39.9006 2.23901 39.4719 2.23901H29.9192C28.4619 2.23901 27.2764 3.42458 27.2764 4.88187V12.6466C27.2926 12.6309 27.3098 12.6164 27.3263 12.6009C28.2465 11.7429 29.4938 11.2483 30.7527 11.2483H43.6847C43.7532 10.2059 44.4638 9.28905 45.4444 8.94144C45.7207 8.84352 46.0128 8.79528 46.3059 8.79528H47.7676V4.88187C47.7676 3.42458 46.582 2.23901 45.1247 2.23901H42.5773C42.1486 2.23901 41.801 1.89141 41.801 1.46265C41.801 1.03388 42.1486 0.686279 42.5773 0.686279H45.1247C47.4382 0.686279 49.3203 2.5684 49.3203 4.88187V8.79528H50.3733C51.8217 8.79528 53 9.9738 53 11.422V19.5284C53 22.5446 50.5461 24.9986 47.5298 24.9986H47.1397C47.1397 24.9986 47.9897 27.285 47.9904 27.2868C48.5267 28.7292 47.4228 30.3137 45.8864 30.3137H44.6374C43.9382 30.3137 43.269 29.9808 42.8472 29.4231L39.5004 24.9986H13.4994L10.1526 29.4233C9.73078 29.9808 9.06155 30.3137 8.36251 30.3137C8.36251 30.3137 7.11432 30.3137 7.11359 30.3137C5.57535 30.3137 4.47343 28.7289 5.00964 27.2868L5.86044 24.9986H5.47018C2.45394 24.9986 0 22.5446 0 19.5284V11.422C0 9.9738 1.17832 8.79528 2.62671 8.79528ZM25.7236 4.88208C25.7236 3.42468 24.5381 2.23912 23.0808 2.23912H7.87526C6.41797 2.23912 5.2324 3.42468 5.2324 4.88197V8.79538C5.2324 8.79538 6.69373 8.79538 6.69425 8.79538C7.72651 8.79538 8.71674 9.45788 9.11714 10.4084C9.22925 10.6745 9.29643 10.9604 9.31527 11.2485C9.31527 11.2485 22.2469 11.2485 22.2473 11.2485C23.5257 11.2485 24.7999 11.7629 25.7236 12.6468V4.88208ZM43.679 12.8011H30.7527C28.8358 12.8012 27.2764 14.3607 27.2764 16.2776V17.3816H43.679V12.8011ZM44.0855 28.4864C44.2156 28.6584 44.422 28.761 44.6375 28.761C44.6375 28.761 45.8822 28.761 45.8865 28.761C46.3619 28.761 46.7007 28.2733 46.535 27.828L45.4831 24.9986H41.4474L44.0855 28.4864ZM7.11359 28.7609H8.36251C8.57803 28.7609 8.78434 28.6583 8.91435 28.4864L11.5526 24.9986H7.51689C7.51689 24.9986 6.46859 27.818 6.46497 27.8279C6.29903 28.2742 6.64022 28.7609 7.11359 28.7609ZM5.47018 23.4458H47.5298C49.6899 23.446 51.4473 21.6885 51.4473 19.5284V11.422C51.4473 10.8298 50.9655 10.348 50.3733 10.348H46.3059C45.7136 10.348 45.2319 10.8298 45.2319 11.422V18.1579C45.2319 18.5866 44.8843 18.9342 44.4555 18.9342H15.9393C15.5106 18.9342 15.163 18.5866 15.163 18.1579C15.163 17.7291 15.5106 17.3815 15.9393 17.3815H25.7236V16.2775C25.7236 14.3606 24.1642 12.8011 22.2473 12.8011H9.32096V17.3816H12.8339C13.2626 17.3816 13.6102 17.7292 13.6102 18.158C13.6102 18.5867 13.2626 18.9343 12.8339 18.9343H8.54459C8.11583 18.9343 7.76823 18.5867 7.76823 18.158V11.4221C7.76823 10.8299 7.28646 10.3481 6.69425 10.3481H2.62681C2.0346 10.3481 1.55284 10.8299 1.55284 11.4221V19.5284H1.55273C1.55273 21.6885 3.31012 23.4458 5.47018 23.4458Z"/>
</mask>
<path d="M2.62671 8.79528H3.67967V4.88187C3.67967 2.5684 5.56179 0.686279 7.87526 0.686279H23.0808C24.4903 0.686279 25.7388 1.38573 26.5 2.45495C27.2612 1.38563 28.5097 0.686279 29.9192 0.686279H39.4719C39.9006 0.686279 40.2482 1.03388 40.2482 1.46265C40.2482 1.89141 39.9006 2.23901 39.4719 2.23901H29.9192C28.4619 2.23901 27.2764 3.42458 27.2764 4.88187V12.6466C27.2926 12.6309 27.3098 12.6164 27.3263 12.6009C28.2465 11.7429 29.4938 11.2483 30.7527 11.2483H43.6847C43.7532 10.2059 44.4638 9.28905 45.4444 8.94144C45.7207 8.84352 46.0128 8.79528 46.3059 8.79528H47.7676V4.88187C47.7676 3.42458 46.582 2.23901 45.1247 2.23901H42.5773C42.1486 2.23901 41.801 1.89141 41.801 1.46265C41.801 1.03388 42.1486 0.686279 42.5773 0.686279H45.1247C47.4382 0.686279 49.3203 2.5684 49.3203 4.88187V8.79528H50.3733C51.8217 8.79528 53 9.9738 53 11.422V19.5284C53 22.5446 50.5461 24.9986 47.5298 24.9986H47.1397C47.1397 24.9986 47.9897 27.285 47.9904 27.2868C48.5267 28.7292 47.4228 30.3137 45.8864 30.3137H44.6374C43.9382 30.3137 43.269 29.9808 42.8472 29.4231L39.5004 24.9986H13.4994L10.1526 29.4233C9.73078 29.9808 9.06155 30.3137 8.36251 30.3137C8.36251 30.3137 7.11432 30.3137 7.11359 30.3137C5.57535 30.3137 4.47343 28.7289 5.00964 27.2868L5.86044 24.9986H5.47018C2.45394 24.9986 0 22.5446 0 19.5284V11.422C0 9.9738 1.17832 8.79528 2.62671 8.79528ZM25.7236 4.88208C25.7236 3.42468 24.5381 2.23912 23.0808 2.23912H7.87526C6.41797 2.23912 5.2324 3.42468 5.2324 4.88197V8.79538C5.2324 8.79538 6.69373 8.79538 6.69425 8.79538C7.72651 8.79538 8.71674 9.45788 9.11714 10.4084C9.22925 10.6745 9.29643 10.9604 9.31527 11.2485C9.31527 11.2485 22.2469 11.2485 22.2473 11.2485C23.5257 11.2485 24.7999 11.7629 25.7236 12.6468V4.88208ZM43.679 12.8011H30.7527C28.8358 12.8012 27.2764 14.3607 27.2764 16.2776V17.3816H43.679V12.8011ZM44.0855 28.4864C44.2156 28.6584 44.422 28.761 44.6375 28.761C44.6375 28.761 45.8822 28.761 45.8865 28.761C46.3619 28.761 46.7007 28.2733 46.535 27.828L45.4831 24.9986H41.4474L44.0855 28.4864ZM7.11359 28.7609H8.36251C8.57803 28.7609 8.78434 28.6583 8.91435 28.4864L11.5526 24.9986H7.51689C7.51689 24.9986 6.46859 27.818 6.46497 27.8279C6.29903 28.2742 6.64022 28.7609 7.11359 28.7609ZM5.47018 23.4458H47.5298C49.6899 23.446 51.4473 21.6885 51.4473 19.5284V11.422C51.4473 10.8298 50.9655 10.348 50.3733 10.348H46.3059C45.7136 10.348 45.2319 10.8298 45.2319 11.422V18.1579C45.2319 18.5866 44.8843 18.9342 44.4555 18.9342H15.9393C15.5106 18.9342 15.163 18.5866 15.163 18.1579C15.163 17.7291 15.5106 17.3815 15.9393 17.3815H25.7236V16.2775C25.7236 14.3606 24.1642 12.8011 22.2473 12.8011H9.32096V17.3816H12.8339C13.2626 17.3816 13.6102 17.7292 13.6102 18.158C13.6102 18.5867 13.2626 18.9343 12.8339 18.9343H8.54459C8.11583 18.9343 7.76823 18.5867 7.76823 18.158V11.4221C7.76823 10.8299 7.28646 10.3481 6.69425 10.3481H2.62681C2.0346 10.3481 1.55284 10.8299 1.55284 11.4221V19.5284H1.55273C1.55273 21.6885 3.31012 23.4458 5.47018 23.4458Z" fill="white" stroke="white" stroke-width="0.4" mask="url(#path-1-inside-1)"/>
</svg>
