<svg width="39" height="39" viewBox="0 0 39 39" fill="none" xmlns="http://www.w3.org/2000/svg">
<g clip-path="url(#clip0)">
<path d="M19.4984 11.6411C15.1863 11.6411 12.5078 13.8487 12.5078 17.4249C12.5078 17.8313 12.8373 18.1607 13.2437 18.1607H25.7531C26.1595 18.1607 26.4889 17.8313 26.4889 17.4249C26.4889 13.856 23.8105 11.6411 19.4984 11.6411ZM14.031 16.689C14.5167 13.3851 18.2916 13.1128 19.4984 13.1128C20.7052 13.1128 24.4801 13.3851 24.9657 16.689H14.031Z" fill="white"/>
<path d="M19.4992 3.91473C17.5688 3.91473 16.0039 5.47961 16.0039 7.41002C16.008 9.33877 17.5704 10.9013 19.4992 10.9053C21.4296 10.9053 22.9945 9.34042 22.9945 7.41002C22.9945 5.47961 21.4296 3.91473 19.4992 3.91473ZM19.4992 9.4336C18.3816 9.4336 17.4756 8.52759 17.4756 7.41002C17.4756 6.29245 18.3816 5.38643 19.4992 5.38643C20.6168 5.38643 21.5228 6.29245 21.5228 7.41002C21.5228 8.52759 20.6168 9.4336 19.4992 9.4336Z" fill="white"/>
<path d="M6.99057 28.5657C2.67849 28.5657 0 30.7732 0 34.3494C0 34.7558 0.329476 35.0853 0.735849 35.0853H13.2453C13.6517 35.0853 13.9811 34.7558 13.9811 34.3494C13.9811 30.7806 11.3026 28.5657 6.99057 28.5657ZM1.52321 33.6136C2.00887 30.3096 5.77641 30.0374 6.99057 30.0374C8.20472 30.0374 11.9723 30.3096 12.4579 33.6136H1.52321Z" fill="white"/>
<path d="M6.99138 20.8392C5.06097 20.8392 3.49609 22.4041 3.49609 24.3345C3.50014 26.2633 5.06263 27.8258 6.99138 27.8298C8.92179 27.8298 10.4867 26.2649 10.4867 24.3345C10.4867 22.4041 8.92179 20.8392 6.99138 20.8392ZM6.99138 26.3581C5.87381 26.3581 4.96779 25.4521 4.96779 24.3345C4.96779 23.2169 5.87381 22.3109 6.99138 22.3109C8.10895 22.3109 9.01497 23.2169 9.01497 24.3345C9.01497 25.4521 8.10895 26.3581 6.99138 26.3581Z" fill="white"/>
<path d="M32.0101 28.5657C27.698 28.5657 25.0195 30.7732 25.0195 34.3494C25.0195 34.7558 25.349 35.0853 25.7554 35.0853H38.2648C38.6712 35.0853 39.0007 34.7558 39.0007 34.3494C39.0007 30.7806 36.3222 28.5657 32.0101 28.5657ZM26.5427 33.6136C27.0284 30.3096 30.7959 30.0374 32.0101 30.0374C33.2242 30.0374 36.9918 30.3096 37.4775 33.6136H26.5427Z" fill="white"/>
<path d="M32.0109 20.8392C30.0805 20.8392 28.5156 22.4041 28.5156 24.3345C28.5197 26.2633 30.0822 27.8258 32.0109 27.8298C33.9413 27.8298 35.5062 26.2649 35.5062 24.3345C35.5062 22.4041 33.9413 20.8392 32.0109 20.8392ZM32.0109 26.3581C30.8933 26.3581 29.9873 25.4521 29.9873 24.3345C29.9873 23.2169 30.8933 22.3109 32.0109 22.3109C33.1285 22.3109 34.0345 23.2169 34.0345 24.3345C34.0345 25.4521 33.1285 26.3581 32.0109 26.3581Z" fill="white"/>
<path d="M23.3053 27.2926L20.2369 24.2094V19.8679C20.2369 19.4616 19.9074 19.1321 19.501 19.1321C19.0946 19.1321 18.7652 19.4616 18.7652 19.8679V24.2094L15.6967 27.2779C15.4061 27.5644 15.4028 28.0323 15.6893 28.3228C15.9758 28.6134 16.4436 28.6167 16.7342 28.3302L19.501 25.556L22.2678 28.3302C22.5765 28.5945 23.041 28.5586 23.3053 28.2499C23.5413 27.9744 23.5413 27.5681 23.3053 27.2926Z" fill="white"/>
</g>
<defs>
<clipPath id="clip0">
<rect width="39" height="39" fill="white"/>
</clipPath>
</defs>
</svg>
