<svg width="29" height="29" viewBox="0 0 29 29" fill="none" xmlns="http://www.w3.org/2000/svg">
<g clip-path="url(#clip0)">
<path d="M29 -0.2H29.2V0V29V29.2H29H0H-0.200001V29V0V-0.2H0H29ZM27.1008 1.89922H1.89922V6.59688H27.1008V1.89922ZM1.89922 27.1008H27.1008V8.69609H1.89922V27.1008Z" fill="white" stroke="white" stroke-width="0.4"/>
<path d="M25.6016 3.19844H25.8016V3.39844V5.09766V5.29766H25.6016H23.9023H23.7023V5.09766V3.39844V3.19844H23.9023H25.6016Z" fill="white" stroke="white" stroke-width="0.4"/>
<path d="M22.2031 3.19844H22.4031V3.39844V5.09766V5.29766H22.2031H20.5039H20.3039V5.09766V3.39844V3.19844H20.5039H22.2031Z" fill="white" stroke="white" stroke-width="0.4"/>
<path d="M18.8047 3.19844H19.0047V3.39844V5.09766V5.29766H18.8047H17.1055H16.9055V5.09766V3.39844V3.19844H17.1055H18.8047Z" fill="white" stroke="white" stroke-width="0.4"/>
<path d="M13.4596 14.1577L11.9596 13.2917L11.9596 15.0238L11.9596 20.4976L11.9596 22.2296L13.4596 21.3636L18.2 18.6267L19.7 17.7607L18.2 16.8946L13.4596 14.1577Z" stroke="white" stroke-width="2"/>
</g>
<defs>
<clipPath id="clip0">
<rect width="29" height="29" fill="white" transform="matrix(-1 0 0 1 29 0)"/>
</clipPath>
</defs>
</svg>
