<svg width="53" height="25" viewBox="0 0 53 25" fill="none" xmlns="http://www.w3.org/2000/svg">
<path d="M0 16.3925H11.6674V13.899H3.98906L7.30943 11.1284C10.1456 8.77345 11.506 7.41126 11.506 4.87157C11.506 1.93939 9.33855 0 6.17958 0C3.29731 0 1.77548 1.22367 0.230581 3.39394L2.23664 4.96393C3.48178 3.34776 4.49634 2.53968 5.97206 2.53968C7.44778 2.53968 8.57763 3.46321 8.57763 5.05628C8.57763 6.51082 7.77059 7.54979 5.55701 9.41992L0 14.153V16.3925Z" fill="white"/>
<path d="M22.0609 16.3925H24.7817V12.7677H27.0876V10.4358H24.7817V0.11544H22.3606L13.391 10.7359L13.9214 12.7677H22.0609V16.3925ZM16.7575 10.4358L22.0609 4.0404V10.4358H16.7575Z" fill="white"/>
<path d="M26.4219 25H28.843L39.2653 3.62049H36.8442L26.4219 25Z" fill="white"/>
<path d="M42.5316 24.1039H45.7136L53 10.0895V7.94228H41.6554V10.4358H49.7719L42.5316 24.1039Z" fill="white"/>
</svg>
