<svg width="19" height="22" viewBox="0 0 19 22" fill="none" xmlns="http://www.w3.org/2000/svg">
<path d="M9.42879 11.6722C9.45037 11.6722 9.47195 11.6722 9.49784 11.6722C9.50647 11.6722 9.5151 11.6722 9.52374 11.6722C9.53668 11.6722 9.55395 11.6722 9.56689 11.6722C10.8314 11.6497 11.8543 11.1877 12.6095 10.304C14.2711 8.35713 13.9949 5.01966 13.9647 4.70117C13.8568 2.31021 12.7692 1.16632 11.8715 0.632504C11.2026 0.233264 10.4214 0.0179434 9.54963 0H9.51942C9.51511 0 9.50647 0 9.50216 0H9.47626C8.99721 0 8.05637 0.0807453 7.15437 0.614561C6.24806 1.14838 5.14321 2.29227 5.03532 4.70117C5.00511 5.01966 4.7289 8.35713 6.39048 10.304C7.14142 11.1877 8.16426 11.6497 9.42879 11.6722ZM6.18763 4.81331C6.18763 4.79986 6.19195 4.7864 6.19195 4.77743C6.33437 1.56107 8.53111 1.21566 9.47195 1.21566H9.48921C9.49784 1.21566 9.51079 1.21566 9.52374 1.21566C10.689 1.24258 12.6699 1.73602 12.8037 4.77743C12.8037 4.79088 12.8037 4.80434 12.8081 4.81331C12.8124 4.84472 13.1145 7.89509 11.7421 9.50102C11.1983 10.138 10.4732 10.452 9.51942 10.461C9.51079 10.461 9.50647 10.461 9.49784 10.461C9.48921 10.461 9.48489 10.461 9.47626 10.461C8.52679 10.452 7.79742 10.138 7.25795 9.50102C5.88984 7.90406 6.18332 4.84023 6.18763 4.81331Z" fill="white"/>
<path d="M18.9987 17.0804C18.9987 17.0761 18.9987 17.0717 18.9987 17.0674C18.9987 17.0326 18.9941 16.9978 18.9941 16.9587C18.9663 16.0976 18.9062 14.084 16.8987 13.4403C16.8848 13.436 16.8663 13.4316 16.8524 13.4273C14.7663 12.9271 13.0316 11.7964 13.0131 11.7833C12.731 11.5963 12.3424 11.6616 12.1435 11.9269C11.9446 12.1921 12.014 12.5575 12.2962 12.7445C12.3748 12.7967 14.2158 14.0013 16.5194 14.558C17.5971 14.919 17.7174 16.0019 17.7498 16.9934C17.7498 17.0326 17.7498 17.0674 17.7544 17.1022C17.759 17.4936 17.7313 18.0981 17.6573 18.446C16.9079 18.8461 13.9706 20.2291 9.50229 20.2291C5.05244 20.2291 2.09667 18.8418 1.34269 18.4417C1.26868 18.0937 1.2363 17.4892 1.24555 17.0978C1.24555 17.063 1.25018 17.0282 1.25018 16.9891C1.28256 15.9975 1.40282 14.9146 2.48059 14.5537C4.78416 13.997 6.62515 12.788 6.70379 12.7401C6.98595 12.5531 7.05534 12.1878 6.85644 11.9225C6.65753 11.6572 6.26898 11.592 5.98682 11.779C5.96832 11.792 4.24296 12.9228 2.14755 13.4229C2.12905 13.4273 2.11517 13.4316 2.10129 13.436C0.0937715 14.084 0.0336384 16.0976 0.00588466 16.9543C0.00588466 16.9934 0.00588456 17.0282 0.00125893 17.063C0.00125893 17.0674 0.00125893 17.0717 0.00125893 17.0761C-0.0033667 17.3022 -0.00799222 18.4634 0.237166 19.0462C0.283422 19.1593 0.366684 19.2549 0.477699 19.3202C0.616467 19.4071 3.94229 21.399 9.50692 21.399C15.0715 21.399 18.3974 19.4028 18.5361 19.3202C18.6425 19.2549 18.7304 19.1593 18.7767 19.0462C19.008 18.4678 19.0033 17.3066 18.9987 17.0804Z" fill="white"/>
</svg>
