<svg width="14" height="22" viewBox="0 0 14 22" fill="none" xmlns="http://www.w3.org/2000/svg">
<path d="M6.98995 18.4828L10.7754 14.4051L9.55005 13.224L6.99325 15.9782L4.4516 13.2256L3.2231 14.4034L6.98995 18.4828ZM9.53674e-07 16.8438V5.15625C9.53674e-07 2.3131 2.27003 0 5.06024 0H8.93976C11.73 0 14 2.3131 14 5.15625V16.8438C14 19.6869 11.73 22 8.93976 22H5.06024C2.27003 22 9.53674e-07 19.6869 9.53674e-07 16.8438ZM5.06024 1.71875C3.20004 1.71875 1.68675 3.26076 1.68675 5.15625V16.8438C1.68675 18.7392 3.20004 20.2812 5.06024 20.2812H8.93976C10.8 20.2812 12.3133 18.7392 12.3133 16.8438V5.15625C12.3133 3.26076 10.8 1.71875 8.93976 1.71875H5.06024ZM7 3.48047C7.46583 3.48047 7.84337 3.86517 7.84337 4.33984C7.84337 4.81451 7.46583 5.19922 7 5.19922C6.53417 5.19922 6.15663 4.81451 6.15663 4.33984C6.15663 3.86517 6.53417 3.48047 7 3.48047ZM7 6.91797C7.46583 6.91797 7.84337 7.30267 7.84337 7.77734C7.84337 8.25201 7.46583 8.63672 7 8.63672C6.53417 8.63672 6.15663 8.25201 6.15663 7.77734C6.15663 7.30267 6.53417 6.91797 7 6.91797ZM7 10.3555C7.46583 10.3555 7.84337 10.7402 7.84337 11.2148C7.84337 11.6895 7.46583 12.0742 7 12.0742C6.53417 12.0742 6.15663 11.6895 6.15663 11.2148C6.15663 10.7402 6.53417 10.3555 7 10.3555Z" fill="black"/>
</svg>
